# This file uses centimeters as units for non-parametric coordinates.

mtllib 1.mtl
g default
v -0.500000 1.384718 1.802566
v 0.500000 1.384718 1.802566
v -0.500000 5.090259 1.802566
v 0.500000 5.090259 1.802566
v -0.500000 5.090259 -1.802566
v 0.500000 5.090259 -1.802566
v -0.500000 1.384718 -1.802566
v 0.500000 1.384718 -1.802566
vt 0.375000 0.000000
vt 0.625000 0.000000
vt 0.375000 0.250000
vt 0.625000 0.250000
vt 0.375000 0.500000
vt 0.625000 0.500000
vt 0.375000 0.750000
vt 0.625000 0.750000
vt 0.375000 1.000000
vt 0.625000 1.000000
vt 0.875000 0.000000
vt 0.875000 0.250000
vt 0.125000 0.000000
vt 0.125000 0.250000
vn 0.000000 0.000000 1.000000
vn 0.000000 0.000000 1.000000
vn 0.000000 0.000000 1.000000
vn 0.000000 0.000000 1.000000
vn 0.000000 1.000000 0.000000
vn 0.000000 1.000000 0.000000
vn 0.000000 1.000000 0.000000
vn 0.000000 1.000000 0.000000
vn 0.000000 0.000000 -1.000000
vn 0.000000 0.000000 -1.000000
vn 0.000000 0.000000 -1.000000
vn 0.000000 0.000000 -1.000000
vn 0.000000 -1.000000 0.000000
vn 0.000000 -1.000000 0.000000
vn 0.000000 -1.000000 0.000000
vn 0.000000 -1.000000 0.000000
vn 1.000000 0.000000 0.000000
vn 1.000000 0.000000 0.000000
vn 1.000000 0.000000 0.000000
vn 1.000000 0.000000 0.000000
vn -1.000000 0.000000 0.000000
vn -1.000000 0.000000 0.000000
vn -1.000000 0.000000 0.000000
vn -1.000000 0.000000 0.000000
s off
g pCube1
usemtl initialShadingGroup
f 1/1/1 2/2/2 4/4/3 3/3/4
f 3/3/5 4/4/6 6/6/7 5/5/8
f 5/5/9 6/6/10 8/8/11 7/7/12
f 7/7/13 8/8/14 2/10/15 1/9/16
f 2/2/17 8/11/18 6/12/19 4/4/20
f 7/13/21 1/1/22 3/3/23 5/14/24
g default
v -0.389916 0.107501 -1.221762
v 0.356405 0.116641 -1.331886
v -0.308477 1.516804 -0.552871
v 0.437844 1.525945 -0.662995
v -0.356405 1.667790 -0.865151
v 0.389916 1.676930 -0.975275
v -0.437844 0.258487 -1.534042
v 0.308477 0.267627 -1.644166
vt 0.375000 0.000000
vt 0.625000 0.000000
vt 0.375000 0.250000
vt 0.625000 0.250000
vt 0.375000 0.500000
vt 0.625000 0.500000
vt 0.375000 0.750000
vt 0.625000 0.750000
vt 0.375000 1.000000
vt 0.625000 1.000000
vt 0.875000 0.000000
vt 0.875000 0.250000
vt 0.125000 0.000000
vt 0.125000 0.250000
vn 0.136874 -0.431189 0.891819
vn 0.136874 -0.431189 0.891819
vn 0.136874 -0.431189 0.891819
vn 0.136874 -0.431189 0.891819
vn 0.052134 0.902180 0.428198
vn 0.052134 0.902180 0.428198
vn 0.052134 0.902180 0.428198
vn 0.052134 0.902180 0.428198
vn -0.136874 0.431189 -0.891819
vn -0.136874 0.431189 -0.891819
vn -0.136874 0.431189 -0.891819
vn -0.136874 0.431189 -0.891819
vn -0.052134 -0.902180 -0.428198
vn -0.052134 -0.902180 -0.428198
vn -0.052134 -0.902180 -0.428198
vn -0.052134 -0.902180 -0.428198
vn 0.989216 0.012115 -0.145964
vn 0.989216 0.012115 -0.145964
vn 0.989216 0.012115 -0.145964
vn 0.989216 0.012115 -0.145964
vn -0.989216 -0.012115 0.145964
vn -0.989216 -0.012115 0.145964
vn -0.989216 -0.012115 0.145964
vn -0.989216 -0.012115 0.145964
s off
g pCube2
usemtl initialShadingGroup
f 9/15/25 10/16/26 12/18/27 11/17/28
f 11/17/29 12/18/30 14/20/31 13/19/32
f 13/19/33 14/20/34 16/22/35 15/21/36
f 15/21/37 16/22/38 10/24/39 9/23/40
f 10/16/41 16/25/42 14/26/43 12/18/44
f 15/27/45 9/15/46 11/17/47 13/28/48
g default
v -0.356866 0.252574 1.489128
v 0.397193 0.277069 1.489457
v -0.402263 1.659222 0.811290
v 0.351796 1.683716 0.811618
v -0.397193 1.507363 0.495813
v 0.356866 1.531857 0.496141
v -0.351796 0.100715 1.173651
v 0.402263 0.125210 1.173980
vt 0.375000 0.000000
vt 0.625000 0.000000
vt 0.375000 0.250000
vt 0.625000 0.250000
vt 0.375000 0.500000
vt 0.625000 0.500000
vt 0.375000 0.750000
vt 0.625000 0.750000
vt 0.375000 1.000000
vt 0.625000 1.000000
vt 0.875000 0.000000
vt 0.875000 0.250000
vt 0.125000 0.000000
vt 0.125000 0.250000
vn -0.014480 0.433684 0.900949
vn -0.014480 0.433684 0.900949
vn -0.014480 0.433684 0.900949
vn -0.014480 0.433684 0.900949
vn -0.029061 0.900480 -0.433925
vn -0.029061 0.900480 -0.433925
vn -0.029061 0.900480 -0.433925
vn -0.029061 0.900480 -0.433925
vn 0.014480 -0.433684 -0.900949
vn 0.014480 -0.433684 -0.900949
vn 0.014480 -0.433684 -0.900949
vn 0.014480 -0.433684 -0.900949
vn 0.029061 -0.900480 0.433925
vn 0.029061 -0.900480 0.433925
vn 0.029061 -0.900480 0.433925
vn 0.029061 -0.900480 0.433925
vn 0.999473 0.032466 0.000436
vn 0.999473 0.032466 0.000436
vn 0.999473 0.032466 0.000436
vn 0.999473 0.032466 0.000436
vn -0.999473 -0.032466 -0.000436
vn -0.999473 -0.032466 -0.000436
vn -0.999473 -0.032466 -0.000436
vn -0.999473 -0.032466 -0.000436
s off
g pCube3
usemtl initialShadingGroup
f 17/29/49 18/30/50 20/32/51 19/31/52
f 19/31/53 20/32/54 22/34/55 21/33/56
f 21/33/57 22/34/58 24/36/59 23/35/60
f 23/35/61 24/36/62 18/38/63 17/37/64
f 18/30/65 24/39/66 22/40/67 20/32/68
f 23/41/69 17/29/70 19/31/71 21/42/72
